<svg width="1440" height="64" viewBox="0 0 1440 64" fill="none" xmlns="http://www.w3.org/2000/svg">
<mask id="path-1-inside-1_4276_147628" fill="white">
<path d="M0 0H1440V64H0V0Z"/>
</mask>
<path d="M0 0H1440V64H0V0Z" fill="white"/>
<path d="M1440 64V63H0V64V65H1440V64Z" fill="#E0DDDE" mask="url(#path-1-inside-1_4276_147628)"/>
<rect x="48" y="12" width="40" height="40" rx="4" fill="#171417"/>
<path d="M56.542 20H63.8043V21.2567H57.9603V24.3705H63.0987V25.5923H57.9603V30.2561H56.542V20Z" fill="white"/>
<path d="M57.3331 39.9286C57.3664 40.5104 57.5065 40.9828 57.7536 41.3459C58.224 42.0254 59.0531 42.3652 60.2409 42.3652C60.773 42.3652 61.2576 42.2907 61.6947 42.1418C62.5404 41.8532 62.9633 41.3366 62.9633 40.5919C62.9633 40.0333 62.7851 39.6354 62.4288 39.398C62.0677 39.1653 61.5023 38.9628 60.7326 38.7906L59.3144 38.4764C58.3879 38.2716 57.7322 38.0459 57.3474 37.7992C56.6822 37.371 56.3496 36.731 56.3496 35.8792C56.3496 34.9576 56.6751 34.2013 57.326 33.6102C57.9769 33.019 58.8986 32.7235 60.0912 32.7235C61.1887 32.7235 62.12 32.9841 62.8849 33.5054C63.6546 34.0221 64.0394 34.8506 64.0394 35.9909H62.7067C62.6355 35.4417 62.4834 35.0205 62.2506 34.7272C61.8183 34.192 61.0842 33.9243 60.0484 33.9243C59.2122 33.9243 58.6112 34.0966 58.2454 34.441C57.8795 34.7854 57.6966 35.1857 57.6966 35.6418C57.6966 36.1445 57.9104 36.5122 58.338 36.7449C58.6183 36.8939 59.2526 37.0801 60.2409 37.3035L61.709 37.6316C62.4169 37.7899 62.9633 38.0063 63.3481 38.2809C64.0133 38.7603 64.3459 39.4562 64.3459 40.3684C64.3459 41.5041 63.923 42.3163 63.0773 42.8051C62.2364 43.2938 61.2576 43.5381 60.1411 43.5381C58.8393 43.5381 57.8201 43.2123 57.0837 42.5607C56.3472 41.9137 55.9862 41.0364 56.0004 39.9286H57.3331Z" fill="white"/>
<path d="M75.7203 43.21L75.0076 44.0548L73.3898 42.8469C73.0002 43.0564 72.5774 43.224 72.1212 43.3496C71.6699 43.4753 71.1758 43.5381 70.6389 43.5381C69.014 43.5381 67.7406 43.0168 66.8189 41.9742C66.0064 40.9596 65.6002 39.6889 65.6002 38.1622C65.6002 36.7752 65.9518 35.5883 66.655 34.6016C67.5577 33.3355 68.8928 32.7025 70.6603 32.7025C72.5085 32.7025 73.8768 33.2844 74.7653 34.448C75.459 35.3556 75.8058 36.5169 75.8058 37.9318C75.8058 38.5928 75.7227 39.2281 75.5564 39.8378C75.3046 40.7687 74.8793 41.5274 74.2807 42.1139L75.7203 43.21ZM70.8099 42.2954C71.1045 42.2954 71.3801 42.2768 71.6366 42.2395C71.8932 42.1976 72.1165 42.1185 72.3065 42.0022L71.1591 41.1225L71.8718 40.2637L73.2402 41.304C73.6725 40.8199 73.9647 40.2777 74.1168 39.6773C74.2735 39.0768 74.3519 38.502 74.3519 37.9528C74.3519 36.7473 74.0289 35.7768 73.3827 35.0414C72.7413 34.306 71.8623 33.9383 70.7458 33.9383C69.615 33.9383 68.7194 34.292 68.059 34.9995C67.3985 35.7023 67.0683 36.7868 67.0683 38.253C67.0683 39.4864 67.3843 40.4685 68.0162 41.1993C68.6529 41.93 69.5841 42.2954 70.8099 42.2954Z" fill="white"/>
<path d="M99.14 39.14L106.436 24.51H107.88L100.584 39.14H99.14Z" fill="black"/>
<path d="M110.56 41.99V29.07H111.586L111.738 30.02C112.777 29.2347 113.873 28.842 115.025 28.842C116.229 28.842 117.179 29.2663 117.875 30.115C118.585 30.9637 118.939 32.1037 118.939 33.535C118.939 34.9663 118.585 36.1063 117.875 36.955C117.179 37.8037 116.229 38.228 115.025 38.228C114.493 38.228 113.961 38.1393 113.429 37.962C112.91 37.7847 112.41 37.525 111.928 37.183V41.99H110.56ZM114.797 36.936C115.659 36.936 116.33 36.632 116.811 36.024C117.293 35.416 117.533 34.5863 117.533 33.535C117.533 32.4837 117.293 31.654 116.811 31.046C116.33 30.438 115.659 30.134 114.797 30.134C114.329 30.134 113.835 30.2227 113.315 30.4C112.809 30.5773 112.346 30.8243 111.928 31.141V35.929C112.346 36.2457 112.809 36.4927 113.315 36.67C113.835 36.8473 114.329 36.936 114.797 36.936Z" fill="black"/>
<path d="M127.757 38.228C125.54 38.228 124.432 37.107 124.432 34.865V25.764H120.632V24.51H125.8V34.656C125.8 35.454 125.965 36.0367 126.294 36.404C126.623 36.7587 127.143 36.936 127.852 36.936C128.65 36.936 129.397 36.746 130.094 36.366L130.474 37.582C129.651 38.0127 128.745 38.228 127.757 38.228Z" fill="black"/>
<path d="M135.738 38.228C134.649 38.228 133.807 37.981 133.211 37.487C132.616 36.9803 132.318 36.2837 132.318 35.397C132.318 34.5483 132.597 33.9023 133.154 33.459C133.712 33.0157 134.548 32.794 135.662 32.794H139.082V32.414C139.082 31.5907 138.886 31.008 138.493 30.666C138.113 30.3113 137.461 30.134 136.536 30.134C135.346 30.134 134.269 30.3937 133.306 30.913L132.869 29.716C133.959 29.1333 135.2 28.842 136.593 28.842C137.936 28.842 138.911 29.1143 139.519 29.659C140.14 30.191 140.45 31.0397 140.45 32.205V38H139.424L139.253 37.05C138.734 37.4427 138.183 37.7403 137.6 37.943C137.018 38.133 136.397 38.228 135.738 38.228ZM135.928 36.936C137.119 36.936 138.17 36.594 139.082 35.91V34.01H135.624C134.978 34.01 134.497 34.1303 134.18 34.371C133.876 34.599 133.724 34.941 133.724 35.397C133.724 35.9037 133.908 36.29 134.275 36.556C134.643 36.8093 135.194 36.936 135.928 36.936Z" fill="black"/>
<path d="M148.318 38.228C147.33 38.228 146.481 38.038 145.772 37.658C145.063 37.278 144.518 36.7397 144.138 36.043C143.758 35.3337 143.568 34.4977 143.568 33.535C143.568 32.5597 143.758 31.7237 144.138 31.027C144.518 30.3303 145.063 29.792 145.772 29.412C146.481 29.032 147.33 28.842 148.318 28.842C149.496 28.842 150.585 29.1523 151.586 29.773L151.054 30.913C150.623 30.647 150.18 30.4507 149.724 30.324C149.268 30.1973 148.799 30.134 148.318 30.134C147.254 30.134 146.431 30.4317 145.848 31.027C145.265 31.6097 144.974 32.4457 144.974 33.535C144.974 34.6243 145.265 35.4667 145.848 36.062C146.431 36.6447 147.254 36.936 148.318 36.936C148.85 36.936 149.357 36.86 149.838 36.708C150.332 36.556 150.82 36.3217 151.301 36.005L151.871 37.107C150.807 37.8543 149.623 38.228 148.318 38.228Z" fill="black"/>
<path d="M159.13 38.228C157.598 38.228 156.388 37.81 155.501 36.974C154.627 36.138 154.19 34.9917 154.19 33.535C154.19 32.5723 154.38 31.7427 154.76 31.046C155.14 30.3493 155.672 29.811 156.356 29.431C157.04 29.0383 157.838 28.842 158.75 28.842C159.637 28.842 160.403 29.0257 161.049 29.393C161.695 29.7477 162.189 30.2543 162.531 30.913C162.886 31.559 163.063 32.3317 163.063 33.231C163.063 33.3577 163.063 33.4843 163.063 33.611C163.063 33.7377 163.051 33.8707 163.025 34.01H155.615C155.704 34.9473 156.052 35.6693 156.66 36.176C157.268 36.6827 158.104 36.936 159.168 36.936C160.232 36.936 161.239 36.6257 162.189 36.005L162.778 37.126C162.208 37.506 161.626 37.7847 161.03 37.962C160.435 38.1393 159.802 38.228 159.13 38.228ZM155.653 32.794H161.676C161.588 31.958 161.29 31.3057 160.783 30.837C160.277 30.3683 159.593 30.134 158.731 30.134C157.883 30.134 157.186 30.3683 156.641 30.837C156.109 31.3057 155.78 31.958 155.653 32.794Z" fill="black"/>
<path d="M165.155 38V29.07H166.086L166.219 29.811C166.89 29.165 167.612 28.842 168.385 28.842C169.196 28.842 169.759 29.165 170.076 29.811C170.747 29.165 171.469 28.842 172.242 28.842C172.837 28.842 173.306 29.032 173.648 29.412C174.003 29.7793 174.18 30.2923 174.18 30.951V38H172.869V31.103C172.869 30.4063 172.552 30.058 171.919 30.058C171.336 30.058 170.804 30.2987 170.323 30.78V38H169.012V31.103C169.012 30.4063 168.695 30.058 168.062 30.058C167.479 30.058 166.947 30.2987 166.466 30.78V38H165.155Z" fill="black"/>
<path d="M179.824 38.228C178.735 38.228 177.893 37.981 177.297 37.487C176.702 36.9803 176.404 36.2837 176.404 35.397C176.404 34.5483 176.683 33.9023 177.24 33.459C177.798 33.0157 178.634 32.794 179.748 32.794H183.168V32.414C183.168 31.5907 182.972 31.008 182.579 30.666C182.199 30.3113 181.547 30.134 180.622 30.134C179.432 30.134 178.355 30.3937 177.392 30.913L176.955 29.716C178.045 29.1333 179.286 28.842 180.679 28.842C182.022 28.842 182.997 29.1143 183.605 29.659C184.226 30.191 184.536 31.0397 184.536 32.205V38H183.51L183.339 37.05C182.82 37.4427 182.269 37.7403 181.686 37.943C181.104 38.133 180.483 38.228 179.824 38.228ZM180.014 36.936C181.205 36.936 182.256 36.594 183.168 35.91V34.01H179.71C179.064 34.01 178.583 34.1303 178.266 34.371C177.962 34.599 177.81 34.941 177.81 35.397C177.81 35.9037 177.994 36.29 178.361 36.556C178.729 36.8093 179.28 36.936 180.014 36.936Z" fill="black"/>
<path d="M188.015 38V24.51H189.383V33.63L194.475 29.07H196.337L192.423 32.547L196.432 38H194.722L191.378 33.459L189.383 35.245V38H188.015Z" fill="black"/>
<path d="M203.216 38.228C201.684 38.228 200.474 37.81 199.587 36.974C198.713 36.138 198.276 34.9917 198.276 33.535C198.276 32.5723 198.466 31.7427 198.846 31.046C199.226 30.3493 199.758 29.811 200.442 29.431C201.126 29.0383 201.924 28.842 202.836 28.842C203.723 28.842 204.489 29.0257 205.135 29.393C205.781 29.7477 206.275 30.2543 206.617 30.913C206.972 31.559 207.149 32.3317 207.149 33.231C207.149 33.3577 207.149 33.4843 207.149 33.611C207.149 33.7377 207.137 33.8707 207.111 34.01H199.701C199.79 34.9473 200.138 35.6693 200.746 36.176C201.354 36.6827 202.19 36.936 203.254 36.936C204.318 36.936 205.325 36.6257 206.275 36.005L206.864 37.126C206.294 37.506 205.712 37.7847 205.116 37.962C204.521 38.1393 203.888 38.228 203.216 38.228ZM199.739 32.794H205.762C205.674 31.958 205.376 31.3057 204.869 30.837C204.363 30.3683 203.679 30.134 202.817 30.134C201.969 30.134 201.272 30.3683 200.727 30.837C200.195 31.3057 199.866 31.958 199.739 32.794Z" fill="black"/>
<path d="M210.571 38V29.07H211.673L211.863 30.628C212.382 30.0327 212.959 29.5893 213.592 29.298C214.238 28.994 214.935 28.842 215.682 28.842C216.518 28.842 217.189 29.0193 217.696 29.374L217.183 30.609C216.942 30.4443 216.689 30.3303 216.423 30.267C216.17 30.191 215.885 30.153 215.568 30.153C214.137 30.153 212.927 30.8307 211.939 32.186V38H210.571Z" fill="black"/>
<rect x="225" y="21" width="42" height="24" rx="4" fill="#97DAF8" fill-opacity="0.16"/>
<path d="M234.078 37V28.5449H237.312C238.865 28.5449 239.814 29.3594 239.814 30.6484V30.6602C239.814 31.5332 239.17 32.3301 238.355 32.4766V32.5703C239.51 32.7168 240.242 33.5078 240.242 34.6211V34.6328C240.242 36.1152 239.176 37 237.377 37H234.078ZM237.09 29.4766H235.133V32.1895H236.82C238.098 32.1895 238.748 31.7324 238.748 30.8418V30.8301C238.748 29.9746 238.139 29.4766 237.09 29.4766ZM237.119 33.0977H235.133V36.0684H237.219C238.49 36.0684 239.158 35.5527 239.158 34.5801V34.5684C239.158 33.5957 238.467 33.0977 237.119 33.0977ZM244.414 37.1113C242.609 37.1113 241.52 35.8457 241.52 33.8652V33.8594C241.52 31.9082 242.633 30.5723 244.35 30.5723C246.066 30.5723 247.109 31.8496 247.109 33.7363V34.1348H242.562C242.592 35.4414 243.312 36.2031 244.438 36.2031C245.293 36.2031 245.82 35.7988 245.99 35.418L246.014 35.3652H247.033L247.021 35.4121C246.805 36.2676 245.902 37.1113 244.414 37.1113ZM244.344 31.4805C243.406 31.4805 242.691 32.1191 242.58 33.3203H246.072C245.967 32.0723 245.275 31.4805 244.344 31.4805ZM250.936 37.0469C249.635 37.0469 249.09 36.5664 249.09 35.3594V31.5273H248.094V30.6836H249.09V29.0488H250.145V30.6836H251.527V31.5273H250.145V35.1016C250.145 35.8457 250.402 36.1445 251.059 36.1445C251.24 36.1445 251.34 36.1387 251.527 36.1211V36.9883C251.328 37.0234 251.135 37.0469 250.936 37.0469ZM254.785 37.1113C253.584 37.1113 252.676 36.3848 252.676 35.2363V35.2246C252.676 34.0996 253.508 33.4492 254.979 33.3613L256.789 33.25V32.6758C256.789 31.8965 256.314 31.4746 255.371 31.4746C254.615 31.4746 254.117 31.7559 253.953 32.248L253.947 32.2656H252.928L252.934 32.2305C253.098 31.2402 254.059 30.5723 255.406 30.5723C256.947 30.5723 257.809 31.3633 257.809 32.6758V37H256.789V36.0684H256.695C256.297 36.7422 255.635 37.1113 254.785 37.1113ZM253.719 35.2129C253.719 35.8516 254.264 36.2266 254.996 36.2266C256.033 36.2266 256.789 35.5469 256.789 34.6445V34.0703L255.102 34.1758C254.141 34.2344 253.719 34.5742 253.719 35.2012V35.2129Z" fill="#171417"/>
<path d="M309.337 38V28.1357H310.567V32.4014H315.981V28.1357H317.212V38H315.981V33.5088H310.567V38H309.337ZM322.605 38.1299C320.507 38.1299 319.208 36.6807 319.208 34.3223V34.3086C319.208 31.9434 320.507 30.501 322.605 30.501C324.704 30.501 326.003 31.9434 326.003 34.3086V34.3223C326.003 36.6807 324.704 38.1299 322.605 38.1299ZM322.605 37.0771C324 37.0771 324.786 36.0586 324.786 34.3223V34.3086C324.786 32.5654 324 31.5537 322.605 31.5537C321.211 31.5537 320.425 32.5654 320.425 34.3086V34.3223C320.425 36.0586 321.211 37.0771 322.605 37.0771ZM327.849 38V30.6309H329.038V31.752H329.147C329.476 30.959 330.173 30.501 331.137 30.501C332.135 30.501 332.832 31.0273 333.174 31.793H333.283C333.68 31.0137 334.521 30.501 335.539 30.501C337.043 30.501 337.884 31.3623 337.884 32.9072V38H336.694V33.1807C336.694 32.0938 336.195 31.5537 335.156 31.5537C334.131 31.5537 333.454 32.3262 333.454 33.2627V38H332.265V32.9961C332.265 32.1211 331.663 31.5537 330.733 31.5537C329.77 31.5537 329.038 32.3945 329.038 33.4336V38H327.849ZM343.038 38.1299C340.933 38.1299 339.661 36.6533 339.661 34.3428V34.3359C339.661 32.0596 340.96 30.501 342.963 30.501C344.966 30.501 346.183 31.9912 346.183 34.1924V34.6572H340.878C340.912 36.1816 341.753 37.0703 343.065 37.0703C344.063 37.0703 344.679 36.5986 344.877 36.1543L344.904 36.0928H346.094L346.08 36.1475C345.827 37.1455 344.774 38.1299 343.038 38.1299ZM342.956 31.5605C341.862 31.5605 341.028 32.3057 340.898 33.707H344.973C344.85 32.251 344.043 31.5605 342.956 31.5605Z" fill="#555555"/>
<rect x="1080" y="12" width="40" height="40" rx="8" fill="white"/>
<path d="M1110.84 31.2C1110.33 29.2631 1109.61 27.384 1108.68 25.5941C1108.65 25.5376 1108.61 25.4897 1108.55 25.4548C1107.64 24.9347 1106.69 24.5005 1105.7 24.1583C1103.85 23.5127 1102.98 23.5 1102.95 23.5C1102.86 23.4992 1102.77 23.5302 1102.7 23.5875C1102.63 23.6447 1102.59 23.7242 1102.57 23.8111L1102.46 24.5651C1100.82 24.4084 1099.17 24.4084 1097.53 24.5651L1097.42 23.8111C1097.41 23.7242 1097.36 23.6447 1097.29 23.5875C1097.23 23.5302 1097.14 23.4992 1097.05 23.5C1097.01 23.5 1096.14 23.5 1094.3 24.1528C1093.31 24.4972 1092.35 24.9333 1091.45 25.4548C1091.4 25.4897 1091.35 25.5376 1091.32 25.5941C1090.4 27.384 1089.67 29.2631 1089.16 31.2C1088.19 34.9758 1088 36.8655 1088 36.9433C1088 36.9921 1088 37.0414 1088.02 37.088C1088.03 37.1346 1088.06 37.1777 1088.09 37.2145C1089.06 38.1976 1090.22 38.9814 1091.51 39.5184C1092.69 40.0047 1093.94 40.3344 1095.22 40.4985C1095.29 40.5048 1095.36 40.4912 1095.42 40.4591C1095.49 40.427 1095.54 40.3779 1095.58 40.3176L1096.59 38.6449C1097.72 38.8301 1098.86 38.9202 1100 38.9144C1101.14 38.919 1102.29 38.8277 1103.41 38.6413L1104.43 40.3176C1104.46 40.3723 1104.51 40.4178 1104.56 40.4495C1104.62 40.4812 1104.68 40.4981 1104.75 40.4985H1104.79C1106.06 40.3365 1107.31 40.0093 1108.49 39.5256C1109.78 38.9886 1110.94 38.2048 1111.91 37.2218C1111.94 37.1849 1111.97 37.1419 1111.98 37.0952C1112 37.0486 1112 36.9994 1112 36.9505C1112 36.8655 1111.82 34.9758 1110.84 31.2ZM1108.21 38.8511C1107.16 39.2704 1106.07 39.5691 1104.95 39.7408L1104.18 38.4749C1105.06 38.2507 1106.89 37.6684 1108.27 36.4496C1108.31 36.4177 1108.34 36.379 1108.36 36.3359C1108.38 36.2927 1108.4 36.2459 1108.4 36.1982C1108.4 36.1504 1108.4 36.1026 1108.38 36.0574C1108.36 36.0123 1108.34 35.9707 1108.3 35.9351C1108.27 35.8995 1108.23 35.8705 1108.19 35.8498C1108.14 35.8291 1108.09 35.8172 1108.04 35.8146C1107.99 35.8119 1107.94 35.8188 1107.9 35.8347C1107.85 35.8505 1107.81 35.8751 1107.77 35.9071C1106.08 37.3954 1103.56 37.8673 1103.53 37.8728H1103.52C1102.36 38.0894 1101.18 38.196 1100 38.191C1098.82 38.1996 1097.64 38.0966 1096.48 37.8836H1096.47C1096.44 37.8836 1093.93 37.4062 1092.23 35.9179C1092.16 35.8534 1092.06 35.8201 1091.96 35.8254C1091.86 35.8307 1091.76 35.874 1091.7 35.946C1091.63 36.0179 1091.6 36.1125 1091.6 36.209C1091.61 36.3055 1091.65 36.3959 1091.73 36.4604C1093.12 37.6793 1094.94 38.2688 1095.82 38.4858L1095.05 39.7516C1093.94 39.5811 1092.84 39.2824 1091.79 38.8619C1090.66 38.3804 1089.63 37.6962 1088.77 36.8456C1088.83 36.3194 1089.08 34.4821 1089.89 31.3772C1090.38 29.5284 1091.07 27.7326 1091.94 26.0172C1092.78 25.5509 1093.65 25.1564 1094.56 24.8382C1095.27 24.5779 1095.99 24.3847 1096.73 24.2613L1096.8 24.6935C1096.05 24.8744 1094.2 25.3915 1092.74 26.4169C1092.7 26.4449 1092.67 26.4802 1092.64 26.5208C1092.62 26.5613 1092.6 26.6064 1092.59 26.6533C1092.58 26.7481 1092.6 26.8449 1092.66 26.9223C1092.72 26.9998 1092.81 27.0516 1092.9 27.0663C1092.95 27.0736 1093 27.0716 1093.05 27.0604C1093.1 27.0492 1093.14 27.029 1093.18 27.001C1094.84 25.8418 1097.12 25.3626 1097.28 25.3283C1098.18 25.224 1099.09 25.1733 1100 25.1764C1100.91 25.1729 1101.82 25.2236 1102.72 25.3283C1102.89 25.3626 1105.16 25.84 1106.82 27.001C1106.9 27.0576 1107 27.0811 1107.1 27.0663C1107.2 27.0516 1107.29 26.9998 1107.34 26.9223C1107.4 26.8449 1107.43 26.7481 1107.41 26.6533C1107.4 26.5585 1107.34 26.4735 1107.26 26.4169C1105.8 25.3915 1103.96 24.8762 1103.2 24.6935L1103.27 24.2613C1104.01 24.3852 1104.74 24.5784 1105.44 24.8382C1106.35 25.1564 1107.23 25.5509 1108.06 26.0172C1108.94 27.732 1109.63 29.5279 1110.13 31.3772C1110.93 34.4821 1111.18 36.3194 1111.25 36.8456C1110.38 37.6938 1109.34 38.3743 1108.21 38.8511Z" fill="#555555"/>
<path d="M1096.3 31.4319C1095.03 31.4319 1094 32.5255 1094 33.869C1094 35.2125 1095.03 36.3041 1096.3 36.3041C1097.58 36.3041 1098.61 35.2125 1098.61 33.869C1098.61 32.5255 1097.57 31.4319 1096.3 31.4319ZM1096.3 35.5328C1095.48 35.5328 1094.82 34.7907 1094.82 33.8788C1094.82 32.9668 1095.49 32.2228 1096.3 32.2228C1097.12 32.2228 1097.78 32.9649 1097.78 33.8788C1097.78 34.7927 1097.12 35.523 1096.3 35.523V35.5328Z" fill="#555555"/>
<path d="M1104.05 31.4319C1102.78 31.4319 1101.74 32.5255 1101.74 33.869C1101.74 35.2125 1102.78 36.3041 1104.05 36.3041C1105.32 36.3041 1106.35 35.2125 1106.35 33.869C1106.35 32.5255 1105.32 31.4319 1104.05 31.4319ZM1104.05 35.5328C1103.22 35.5328 1102.57 34.7907 1102.57 33.8788C1102.57 32.9668 1103.23 32.2228 1104.05 32.2228C1104.86 32.2228 1105.53 32.9649 1105.53 33.8788C1105.53 34.7927 1104.86 35.523 1104.05 35.523V35.5328Z" fill="#555555"/>
<path d="M1110.84 31.2C1110.33 29.2631 1109.61 27.384 1108.68 25.5941C1108.65 25.5376 1108.61 25.4897 1108.55 25.4548C1107.64 24.9347 1106.69 24.5005 1105.7 24.1583C1103.85 23.5127 1102.98 23.5 1102.95 23.5C1102.86 23.4992 1102.77 23.5302 1102.7 23.5875C1102.63 23.6447 1102.59 23.7242 1102.57 23.8111L1102.46 24.5651C1100.82 24.4084 1099.17 24.4084 1097.53 24.5651L1097.42 23.8111C1097.41 23.7242 1097.36 23.6447 1097.29 23.5875C1097.23 23.5302 1097.14 23.4992 1097.05 23.5C1097.01 23.5 1096.14 23.5 1094.3 24.1528C1093.31 24.4972 1092.35 24.9333 1091.45 25.4548C1091.4 25.4897 1091.35 25.5376 1091.32 25.5941C1090.4 27.384 1089.67 29.2631 1089.16 31.2C1088.19 34.9758 1088 36.8655 1088 36.9433C1088 36.9921 1088 37.0414 1088.02 37.088C1088.03 37.1346 1088.06 37.1777 1088.09 37.2145C1089.06 38.1976 1090.22 38.9814 1091.51 39.5184C1092.69 40.0047 1093.94 40.3344 1095.22 40.4985C1095.29 40.5048 1095.36 40.4912 1095.42 40.4591C1095.49 40.427 1095.54 40.3779 1095.58 40.3176L1096.59 38.6449C1097.72 38.8301 1098.86 38.9202 1100 38.9144C1101.14 38.919 1102.29 38.8277 1103.41 38.6413L1104.43 40.3176C1104.46 40.3723 1104.51 40.4178 1104.56 40.4495C1104.62 40.4812 1104.68 40.4981 1104.75 40.4985H1104.79C1106.06 40.3365 1107.31 40.0093 1108.49 39.5256C1109.78 38.9886 1110.94 38.2048 1111.91 37.2218C1111.94 37.1849 1111.97 37.1419 1111.98 37.0952C1112 37.0486 1112 36.9994 1112 36.9505C1112 36.8655 1111.82 34.9758 1110.84 31.2ZM1108.21 38.8511C1107.16 39.2704 1106.07 39.5691 1104.95 39.7408L1104.18 38.4749C1105.06 38.2507 1106.89 37.6684 1108.27 36.4496C1108.31 36.4177 1108.34 36.379 1108.36 36.3359C1108.38 36.2927 1108.4 36.2459 1108.4 36.1982C1108.4 36.1504 1108.4 36.1026 1108.38 36.0574C1108.36 36.0123 1108.34 35.9707 1108.3 35.9351C1108.27 35.8995 1108.23 35.8705 1108.19 35.8498C1108.14 35.8291 1108.09 35.8172 1108.04 35.8146C1107.99 35.8119 1107.94 35.8188 1107.9 35.8347C1107.85 35.8505 1107.81 35.8751 1107.77 35.9071C1106.08 37.3954 1103.56 37.8673 1103.53 37.8728H1103.52C1102.36 38.0894 1101.18 38.196 1100 38.191C1098.82 38.1996 1097.64 38.0966 1096.48 37.8836H1096.47C1096.44 37.8836 1093.93 37.4062 1092.23 35.9179C1092.16 35.8534 1092.06 35.8201 1091.96 35.8254C1091.86 35.8307 1091.76 35.874 1091.7 35.946C1091.63 36.0179 1091.6 36.1125 1091.6 36.209C1091.61 36.3055 1091.65 36.3959 1091.73 36.4604C1093.12 37.6793 1094.94 38.2688 1095.82 38.4858L1095.05 39.7516C1093.94 39.5811 1092.84 39.2824 1091.79 38.8619C1090.66 38.3804 1089.63 37.6962 1088.77 36.8456C1088.83 36.3194 1089.08 34.4821 1089.89 31.3772C1090.38 29.5284 1091.07 27.7326 1091.94 26.0172C1092.78 25.5509 1093.65 25.1564 1094.56 24.8382C1095.27 24.5779 1095.99 24.3847 1096.73 24.2613L1096.8 24.6935C1096.05 24.8744 1094.2 25.3915 1092.74 26.4169C1092.7 26.4449 1092.67 26.4802 1092.64 26.5208C1092.62 26.5613 1092.6 26.6064 1092.59 26.6533C1092.58 26.7481 1092.6 26.8449 1092.66 26.9223C1092.72 26.9998 1092.81 27.0516 1092.9 27.0663C1092.95 27.0736 1093 27.0716 1093.05 27.0604C1093.1 27.0492 1093.14 27.029 1093.18 27.001C1094.84 25.8418 1097.12 25.3626 1097.28 25.3283C1098.18 25.224 1099.09 25.1733 1100 25.1764C1100.91 25.1729 1101.82 25.2236 1102.72 25.3283C1102.89 25.3626 1105.16 25.84 1106.82 27.001C1106.9 27.0576 1107 27.0811 1107.1 27.0663C1107.2 27.0516 1107.29 26.9998 1107.34 26.9223C1107.4 26.8449 1107.43 26.7481 1107.41 26.6533C1107.4 26.5585 1107.34 26.4735 1107.26 26.4169C1105.8 25.3915 1103.96 24.8762 1103.2 24.6935L1103.27 24.2613C1104.01 24.3852 1104.74 24.5784 1105.44 24.8382C1106.35 25.1564 1107.23 25.5509 1108.06 26.0172C1108.94 27.732 1109.63 29.5279 1110.13 31.3772C1110.93 34.4821 1111.18 36.3194 1111.25 36.8456C1110.38 37.6938 1109.34 38.3743 1108.21 38.8511Z" stroke="#555555" stroke-width="0.5"/>
<path d="M1096.3 31.4319C1095.03 31.4319 1094 32.5255 1094 33.869C1094 35.2125 1095.03 36.3041 1096.3 36.3041C1097.58 36.3041 1098.61 35.2125 1098.61 33.869C1098.61 32.5255 1097.57 31.4319 1096.3 31.4319ZM1096.3 35.5328C1095.48 35.5328 1094.82 34.7907 1094.82 33.8788C1094.82 32.9668 1095.49 32.2228 1096.3 32.2228C1097.12 32.2228 1097.78 32.9649 1097.78 33.8788C1097.78 34.7927 1097.12 35.523 1096.3 35.523V35.5328Z" stroke="#555555" stroke-width="0.5"/>
<path d="M1104.05 31.4319C1102.78 31.4319 1101.74 32.5255 1101.74 33.869C1101.74 35.2125 1102.78 36.3041 1104.05 36.3041C1105.32 36.3041 1106.35 35.2125 1106.35 33.869C1106.35 32.5255 1105.32 31.4319 1104.05 31.4319ZM1104.05 35.5328C1103.22 35.5328 1102.57 34.7907 1102.57 33.8788C1102.57 32.9668 1103.23 32.2228 1104.05 32.2228C1104.86 32.2228 1105.53 32.9649 1105.53 33.8788C1105.53 34.7927 1104.86 35.523 1104.05 35.523V35.5328Z" stroke="#555555" stroke-width="0.5"/>
<rect x="1128" y="12" width="40" height="40" rx="8" fill="white"/>
<path d="M1148 29.3075C1148.41 29.3075 1148.75 28.9717 1148.75 28.5575C1148.75 28.1432 1148.41 27.8075 1148 27.8075C1147.59 27.8075 1147.25 28.1432 1147.25 28.5575C1147.25 28.9717 1147.59 29.3075 1148 29.3075Z" fill="#171417"/>
<path d="M1147.25 31.7736C1147.25 31.3594 1147.59 31.0236 1148 31.0236C1148.41 31.0236 1148.75 31.3594 1148.75 31.7736V35.4425C1148.75 35.8567 1148.41 36.1925 1148 36.1925C1147.59 36.1925 1147.25 35.8567 1147.25 35.4425V31.7736Z" fill="#171417"/>
<path fill-rule="evenodd" clip-rule="evenodd" d="M1158.5 32C1158.5 37.799 1153.8 42.5 1148 42.5C1142.2 42.5 1137.5 37.799 1137.5 32C1137.5 26.201 1142.2 21.5 1148 21.5C1153.8 21.5 1158.5 26.201 1158.5 32ZM1157 32C1157 36.9706 1152.97 41 1148 41C1143.03 41 1139 36.9706 1139 32C1139 27.0294 1143.03 23 1148 23C1152.97 23 1157 27.0294 1157 32Z" fill="#171417"/>
<rect x="1176" y="12" width="40" height="40" rx="8" fill="white"/>
<path d="M1197.5 21.4998C1197.6 21.4971 1197.7 21.5157 1197.79 21.5545C1197.85 21.5836 1197.92 21.6237 1197.97 21.6726L1203.33 27.0271C1203.38 27.082 1203.42 27.1447 1203.45 27.2127C1203.48 27.3032 1203.5 27.4013 1203.5 27.4998V33.4998H1202V28.9998H1197.5C1197.1 28.9986 1196.72 28.8404 1196.44 28.5593C1196.16 28.2783 1196 27.8972 1196 27.4998V22.9998H1190V40.9998H1194.5V42.4998H1190C1189.6 42.4986 1189.22 42.3404 1188.94 42.0593C1188.66 41.7783 1188.5 41.3972 1188.5 40.9998V22.9998C1188.5 22.6024 1188.66 22.2212 1188.94 21.9402C1189.22 21.6592 1189.6 21.5009 1190 21.4998H1197.5ZM1200.06 37.5652L1198.12 39.4998L1200.07 41.4422L1199 42.4998L1196 39.4998L1199 36.4998L1200.06 37.5652ZM1206.5 39.4998L1203.5 42.4998L1202.44 41.4353L1204.38 39.4998L1202.43 37.5574L1203.5 36.4998L1206.5 39.4998ZM1197.5 27.4998H1201.7L1197.5 23.2996V27.4998Z" fill="#555555"/>
<rect x="1224" y="12" width="40" height="40" rx="8" fill="white"/>
<path d="M1244 21.5C1246.78 21.5031 1249.45 22.6107 1251.42 24.5791C1253.39 26.5476 1254.5 29.2162 1254.5 32C1254.5 34.0766 1253.88 36.1064 1252.73 37.833C1251.58 39.5597 1249.94 40.9064 1248.02 41.7012C1246.1 42.4959 1243.99 42.703 1241.95 42.2979C1239.91 41.8927 1238.04 40.8931 1236.58 39.4248C1235.11 37.9565 1234.11 36.0855 1233.7 34.0488C1233.3 32.012 1233.5 29.9001 1234.3 27.9814C1235.09 26.0629 1236.44 24.4233 1238.17 23.2695C1239.89 22.1159 1241.92 21.5 1244 21.5ZM1244 22.9814C1242.18 22.9814 1240.4 23.535 1238.89 24.5693C1237.39 25.6037 1236.24 27.0699 1235.59 28.7734C1234.94 30.477 1234.82 32.3378 1235.25 34.1094C1235.69 35.881 1236.65 37.4799 1238.01 38.6943C1238.02 37.7105 1238.42 36.7721 1239.12 36.0811C1239.82 35.3901 1240.77 35.0017 1241.75 35H1246.25C1247.23 35.0017 1248.18 35.3901 1248.88 36.0811C1249.58 36.7721 1249.98 37.7105 1249.99 38.6943C1251.35 37.4799 1252.31 35.881 1252.74 34.1094C1253.18 32.3378 1253.06 30.477 1252.41 28.7734C1251.76 27.0699 1250.61 25.6037 1249.11 24.5693C1247.6 23.535 1245.82 22.9814 1244 22.9814ZM1244 26C1244.99 26 1245.95 26.3954 1246.65 27.0986C1247.35 27.8019 1247.75 28.7554 1247.75 29.75C1247.75 30.4915 1247.53 31.2164 1247.12 31.833C1246.71 32.4496 1246.12 32.931 1245.44 33.2148C1244.75 33.4987 1244 33.5724 1243.27 33.4277C1242.54 33.283 1241.87 32.9258 1241.35 32.4014C1240.82 31.8769 1240.47 31.2089 1240.32 30.4814C1240.18 29.754 1240.25 28.9996 1240.53 28.3145C1240.82 27.6294 1241.3 27.0438 1241.92 26.6318C1242.53 26.2199 1243.26 26 1244 26Z" fill="#555555"/>
<rect x="1264" y="12" width="40" height="40" rx="8" fill="white"/>
<path d="M1284 36.5L1276.5 29L1277.55 27.95L1284 34.4L1290.45 27.95L1291.5 29L1284 36.5Z" fill="#555555"/>
<line x1="1328.5" y1="2.18557e-08" x2="1328.5" y2="64" stroke="#E0DDDE"/>
<rect x="1352" y="12" width="40" height="40" rx="8" fill="white"/>
<g clip-path="url(#clip0_4276_147628)">
<path d="M1366.58 22.6851H1363.02C1362.74 22.6851 1362.52 22.9089 1362.52 23.1851V26.7451C1362.52 27.0212 1362.74 27.2451 1363.02 27.2451H1366.58C1366.86 27.2451 1367.08 27.0212 1367.08 26.7451V23.1851C1367.08 22.9089 1366.86 22.6851 1366.58 22.6851Z" fill="#555555"/>
<path d="M1373.79 22.6851H1370.23C1369.96 22.6851 1369.73 22.9089 1369.73 23.1851V26.7451C1369.73 27.0212 1369.96 27.2451 1370.23 27.2451H1373.79C1374.07 27.2451 1374.29 27.0212 1374.29 26.7451V23.1851C1374.29 22.9089 1374.07 22.6851 1373.79 22.6851Z" fill="#555555"/>
<path d="M1380.98 22.6851H1377.42C1377.14 22.6851 1376.92 22.9089 1376.92 23.1851V26.7451C1376.92 27.0212 1377.14 27.2451 1377.42 27.2451H1380.98C1381.26 27.2451 1381.48 27.0212 1381.48 26.7451V23.1851C1381.48 22.9089 1381.26 22.6851 1380.98 22.6851Z" fill="#555555"/>
<path d="M1366.58 29.72H1363.02C1362.74 29.72 1362.52 29.9438 1362.52 30.22V33.78C1362.52 34.0561 1362.74 34.28 1363.02 34.28H1366.58C1366.86 34.28 1367.08 34.0561 1367.08 33.78V30.22C1367.08 29.9438 1366.86 29.72 1366.58 29.72Z" fill="#555555"/>
<path d="M1373.79 29.72H1370.23C1369.96 29.72 1369.73 29.9438 1369.73 30.22V33.78C1369.73 34.0561 1369.96 34.28 1370.23 34.28H1373.79C1374.07 34.28 1374.29 34.0561 1374.29 33.78V30.22C1374.29 29.9438 1374.07 29.72 1373.79 29.72Z" fill="#555555"/>
<path d="M1380.98 29.72H1377.42C1377.14 29.72 1376.92 29.9438 1376.92 30.22V33.78C1376.92 34.0561 1377.14 34.28 1377.42 34.28H1380.98C1381.26 34.28 1381.48 34.0561 1381.48 33.78V30.22C1381.48 29.9438 1381.26 29.72 1380.98 29.72Z" fill="#555555"/>
<path d="M1366.58 36.7549H1363.02C1362.74 36.7549 1362.52 36.9787 1362.52 37.2549V40.8149C1362.52 41.091 1362.74 41.3149 1363.02 41.3149H1366.58C1366.86 41.3149 1367.08 41.091 1367.08 40.8149V37.2549C1367.08 36.9787 1366.86 36.7549 1366.58 36.7549Z" fill="#555555"/>
<path d="M1373.79 36.7549H1370.23C1369.96 36.7549 1369.73 36.9787 1369.73 37.2549V40.8149C1369.73 41.091 1369.96 41.3149 1370.23 41.3149H1373.79C1374.07 41.3149 1374.29 41.091 1374.29 40.8149V37.2549C1374.29 36.9787 1374.07 36.7549 1373.79 36.7549Z" fill="#555555"/>
<path d="M1380.98 36.7549H1377.42C1377.14 36.7549 1376.92 36.9787 1376.92 37.2549V40.8149C1376.92 41.091 1377.14 41.3149 1377.42 41.3149H1380.98C1381.26 41.3149 1381.48 41.091 1381.48 40.8149V37.2549C1381.48 36.9787 1381.26 36.7549 1380.98 36.7549Z" fill="#555555"/>
</g>
<mask id="path-30-inside-2_4276_147628" fill="white">
<path d="M403 0H525V64H403V0Z"/>
</mask>
<path d="M525 64V62H403V64V66H525V64Z" fill="#171417" mask="url(#path-30-inside-2_4276_147628)"/>
<path d="M432.479 38.2461C429.684 38.2461 427.947 36.2637 427.947 33.0781V33.0645C427.947 29.8652 429.677 27.8896 432.473 27.8896C434.715 27.8896 436.417 29.3115 436.649 31.3281V31.3828H434.92L434.913 31.3555C434.66 30.1865 433.717 29.4141 432.473 29.4141C430.798 29.4141 429.752 30.8154 429.752 33.0576V33.0713C429.752 35.3203 430.798 36.7217 432.479 36.7217C433.73 36.7217 434.66 36.0244 434.913 34.9375L434.92 34.9033H436.649V34.9512C436.39 36.9268 434.756 38.2461 432.479 38.2461ZM441.667 38.1504C439.425 38.1504 438.071 36.6875 438.071 34.2676V34.2539C438.071 31.8545 439.445 30.3848 441.667 30.3848C443.896 30.3848 445.263 31.8477 445.263 34.2539V34.2676C445.263 36.6875 443.902 38.1504 441.667 38.1504ZM441.667 36.7695C442.85 36.7695 443.52 35.8467 443.52 34.2744V34.2607C443.52 32.6885 442.843 31.7588 441.667 31.7588C440.484 31.7588 439.808 32.6885 439.808 34.2607V34.2744C439.808 35.8467 440.484 36.7695 441.667 36.7695ZM446.972 38V30.5283H448.674V31.6699H448.79C449.146 30.8701 449.863 30.3848 450.943 30.3848C452.611 30.3848 453.521 31.3896 453.521 33.167V38H451.818V33.5635C451.818 32.4014 451.347 31.8135 450.314 31.8135C449.303 31.8135 448.674 32.5244 448.674 33.6455V38H446.972ZM458.47 38.0342C456.754 38.0342 456.05 37.46 456.05 36.0176V31.8477H454.888V30.5283H456.05V28.6963H457.779V30.5283H459.358V31.8477H457.779V35.6143C457.779 36.3594 458.073 36.6738 458.784 36.6738C459.023 36.6738 459.153 36.667 459.358 36.6465V37.959C459.112 38.0068 458.798 38.0342 458.47 38.0342ZM461.054 38V30.5283H462.756V31.6768H462.872C463.125 30.877 463.809 30.4053 464.793 30.4053C465.053 30.4053 465.319 30.4395 465.483 30.4873V32.0117C465.21 31.957 464.93 31.916 464.636 31.916C463.501 31.916 462.756 32.5928 462.756 33.6592V38H461.054ZM467.753 29.2773C467.192 29.2773 466.734 28.833 466.734 28.2725C466.734 27.7188 467.192 27.2676 467.753 27.2676C468.307 27.2676 468.765 27.7188 468.765 28.2725C468.765 28.833 468.307 29.2773 467.753 29.2773ZM466.898 38V30.5283H468.601V38H466.898ZM474.849 38.123C473.803 38.123 472.989 37.6445 472.579 36.8311H472.463V38H470.761V27.6367H472.463V31.7178H472.579C472.969 30.9111 473.823 30.4053 474.849 30.4053C476.742 30.4053 477.918 31.8818 477.918 34.2607V34.2744C477.918 36.6396 476.722 38.123 474.849 38.123ZM474.315 36.6875C475.478 36.6875 476.182 35.7783 476.182 34.2744V34.2607C476.182 32.7568 475.478 31.8408 474.315 31.8408C473.16 31.8408 472.442 32.7637 472.442 34.2607V34.2744C472.442 35.7715 473.16 36.6875 474.315 36.6875ZM482.095 38.1504C480.413 38.1504 479.552 37.1387 479.552 35.3613V30.5283H481.254V34.9717C481.254 36.127 481.685 36.7148 482.71 36.7148C483.811 36.7148 484.398 36.0039 484.398 34.8828V30.5283H486.101V38H484.398V36.8652H484.282C483.934 37.665 483.175 38.1504 482.095 38.1504ZM491.118 38.0342C489.402 38.0342 488.698 37.46 488.698 36.0176V31.8477H487.536V30.5283H488.698V28.6963H490.428V30.5283H492.007V31.8477H490.428V35.6143C490.428 36.3594 490.722 36.6738 491.433 36.6738C491.672 36.6738 491.802 36.667 492.007 36.6465V37.959C491.761 38.0068 491.446 38.0342 491.118 38.0342ZM496.833 38.1504C494.611 38.1504 493.265 36.6602 493.265 34.2812V34.2744C493.265 31.9229 494.625 30.3848 496.751 30.3848C498.877 30.3848 500.189 31.875 500.189 34.1309V34.6914H494.967C494.987 36.0312 495.712 36.8105 496.867 36.8105C497.79 36.8105 498.316 36.3457 498.48 36.0039L498.501 35.9561H500.121L500.101 36.0176C499.861 36.9814 498.863 38.1504 496.833 38.1504ZM496.771 31.7178C495.821 31.7178 495.11 32.3604 494.98 33.5498H498.528C498.412 32.3262 497.722 31.7178 496.771 31.7178Z" fill="#171417"/>
<defs>
<clipPath id="clip0_4276_147628">
<rect width="24" height="24" fill="white" transform="translate(1360 20)"/>
</clipPath>
</defs>
</svg>
